/* XPM */
static char *dd560b345700448dd0f9ba35d1ecd7403yRdwg0GqLwm0LRZ[] = {
/* columns rows colors chars-per-pixel */
"64 64 12 1 ",
"  c #755338",
". c #080404",
"X c #210F0B",
"o c #161C31",
"O c #402717",
"+ c #573A23",
"@ c #A9795C",
"# c #194183",
"$ c #2861A9",
"% c #767C94",
"& c #BEAA8F",
"* c #A3A6B3",
/* pixels */
"                                                                ",
"                                                                ",
"                                                                ",
"                                                                ",
"                  ............   .......                        ",
"                  ............   .......                        ",
"                  ............   .......                        ",
"                  ...++++++OOO...++++.........                  ",
"                  ...++++++OOO...++++.........                  ",
"                  ...++++++OOO...++++.........                  ",
"                  ......++++++OOO++++OOO++++++...               ",
"                  ......++++++OOO++++OOO++++++...               ",
"               ...OOO++++++++++++++++++++++++++++...            ",
"               ...OOO++++++++++++++++++++++++++++...            ",
"               ...OOO++++++++++++++++++++++++++++...            ",
"            ...OOO++++++++++++++++++++++++++++++++++...         ",
"            ...OOO++++++++++++++++++++++++++++++++++...         ",
"            ...OOO++++++++++++++++++++++++++++++++++...         ",
"            ...OOO++++++OOO++++++++++OOOOOO+++++++++...         ",
"            ...OOO++++++OOO++++++++++OOOOOO+++++++++...         ",
"            ...OOO++++++OOO++++++++++OOOOOO+++++++++...         ",
"            ...OOOOOOOOOOOO++++++++++OOO@@@@@@OOO+++OOO...      ",
"            ...OOOOOOOOOOOO++++++++++OOO@@@@@@OOO+++OOO...      ",
"            ...OOOOOOOOOOOO++++++++++OOO@@@@@@OOO+++OOO...      ",
"            ...OOO+++OOOOOO++++++OOOO@@@@@@@@@@@@OOOOOO...      ",
"            ...OOO+++OOOOOO++++++OOOO@@@@@@@@@@@@OOOOOO...      ",
"            ...OOO+++OOOOOO++++++OOOO@@@@@@@@@@@@OOOOOO...      ",
"            ...OOO++++++@@@OOO+++@@@@XXX&&&&&&XXX...OOO...      ",
"            ...OOO++++++@@@OOO+++@@@@XXX&&&&&&XXX...OOO...      ",
"            ...OOOOOO+++@@@@@@OOO&&&&XXX&&&&&&XXX......         ",
"            ...OOOOOO+++@@@@@@OOO&&&&XXX&&&&&&XXX......         ",
"            ...OOOOOO+++@@@@@@OOO&&&&XXX&&&&&&XXX......         ",
"               ...OOOOOO@@@@@@&&&&&&&&&&&&&&&&&&&...            ",
"               ...OOOOOO@@@@@@&&&&&&&&&&&&&&&&&&&...            ",
"               ...OOOOOO@@@@@@&&&&&&&&&&&&&&&&&&&...            ",
"                  ...OOOOOO@@@@@@&&&&&&&&&&&&&@@@...            ",
"                  ...OOOOOO@@@@@@&&&&&&&&&&&&&@@@...            ",
"                  ...OOOOOO@@@@@@&&&&&&&&&&&&&@@@...            ",
"                     ...OOOOOO@@@@@@@@@@@@@@@@...               ",
"                     ...OOOOOO@@@@@@@@@@@@@@@@...               ",
"                     ...OOOOOO@@@@@@@@@@@@@@@@...               ",
"                     ...OOO++++++%%%%%%%***OOO...               ",
"                     ...OOO++++++%%%%%%%***OOO...               ",
"                  ...&&&&&&++++++%%%%******OOO@@@...            ",
"                  ...&&&&&&++++++%%%%******OOO@@@...            ",
"                  ...&&&&&&++++++%%%%******OOO@@@...            ",
"                  ...&&&&&&++++++$$$$$$$$$$OOO@@@...            ",
"                  ...&&&&&&++++++$$$$$$$$$$OOO@@@...            ",
"                  ...&&&&&&++++++$$$$$$$$$$OOO@@@...            ",
"                  ooo...###$$$$$$####$$$$$$......ooo            ",
"                  ooo...###$$$$$$####$$$$$$......ooo            ",
"                  ooo...###$$$$$$####$$$$$$......ooo            ",
"               oooooo...OOO+++.......OOO+++...ooooooooo         ",
"               oooooo...OOO+++.......OOO+++...ooooooooo         ",
"               oooooo...OOO+++.......OOO+++...ooooooooo         ",
"               oooooooooooooooooooooooooooooooooooooooo         ",
"               oooooooooooooooooooooooooooooooooooooooo         ",
"                  oooooooooooooooooooooooooooooooooo            ",
"                  oooooooooooooooooooooooooooooooooo            ",
"                  oooooooooooooooooooooooooooooooooo            ",
"                                                                ",
"                                                                ",
"                                                                ",
"                                                                "
};
